<svg xmlns="http://www.w3.org/2000/svg"  viewBox="0 0 64 64" width="64px" height="64px"><path d="M 31.949219 4.9355469 C 29.311369 4.9445568 26.674151 5.7396522 24.423828 7.3222656 A 1.0001 1.0001 0 1 0 25.576172 8.9570312 C 29.936577 5.8904332 35.994776 6.2994642 39.902344 10.207031 L 53.787109 24.095703 C 58.161991 28.470585 58.161991 35.531368 53.787109 39.90625 L 39.900391 53.792969 C 35.525509 58.167851 28.464726 58.167851 24.089844 53.792969 L 10.212891 39.916016 C 5.8398007 35.542006 5.8360721 28.482174 10.208984 24.107422 A 1.0001 1.0001 0 0 0 10.220703 24.095703 L 21.267578 12.683594 L 25.458984 16.873047 C 25.234481 17.556259 24.998047 18.24073 24.998047 19 C 24.998047 21.767393 26.655107 24.10147 28.998047 25.234375 L 28.998047 38.763672 C 26.654708 39.896008 24.998047 42.230654 24.998047 44.998047 C 24.998047 48.851544 28.143512 51.998047 31.998047 51.998047 C 35.852582 51.998047 38.998047 48.851544 38.998047 44.998047 C 38.998047 42.229828 37.342119 39.896159 34.998047 38.763672 L 34.998047 25.740234 L 38.671875 29.414062 C 38.336279 30.232352 38 31.063611 38 32 C 38 35.853497 41.145465 39 45 39 C 48.854535 39 52 35.853497 52 32 C 52 28.146503 48.854535 25 45 25 C 44.331056 25 43.720945 25.191029 43.109375 25.367188 L 38.625 20.882812 C 38.803914 20.277189 39 19.674862 39 19 C 39 15.146503 35.854535 12 32 12 C 30.97303 12 29.998115 12.22793 29.123047 12.623047 A 1.0001 1.0001 0 1 0 29.945312 14.445312 C 30.576244 14.160431 31.26697 14 32 14 C 34.773465 14 37 16.227497 37 19 C 37 19.648228 36.863773 20.263771 36.626953 20.851562 A 1.0001 1.0001 0 0 0 36.847656 21.933594 L 42.056641 27.142578 A 1.0001 1.0001 0 0 0 43.136719 27.363281 C 43.714978 27.130639 44.341322 27 45 27 C 47.773465 27 50 29.227497 50 32 C 50 34.772503 47.773465 37 45 37 C 42.226535 37 40 34.772503 40 32 C 40 31.115913 40.229173 30.293799 40.630859 29.572266 A 1.0001 1.0001 0 0 0 40.464844 28.376953 L 35.613281 23.527344 A 1.0001 1.0001 0 0 0 34.421875 23.361328 C 34.170448 23.500913 33.920068 23.617727 33.664062 23.708984 A 1.0001 1.0001 0 0 0 32.998047 24.650391 L 32.998047 39.347656 A 1.0001 1.0001 0 0 0 33.666016 40.291016 C 35.605904 40.978181 36.998047 42.813703 36.998047 44.998047 C 36.998047 47.77055 34.771512 49.998047 31.998047 49.998047 C 29.224582 49.998047 26.998047 47.77055 26.998047 44.998047 C 26.998047 42.813703 28.392712 40.977146 30.332031 40.291016 A 1.0001 1.0001 0 0 0 30.998047 39.347656 L 30.998047 24.650391 A 1.0001 1.0001 0 0 0 30.332031 23.708984 C 28.392143 23.021819 26.998047 21.184344 26.998047 19 C 26.998047 18.26697 27.16043 17.576244 27.445312 16.945312 A 1.0001 1.0001 0 0 0 27.240234 15.826172 L 21.962891 10.550781 A 1.0001 1.0001 0 0 0 20.537109 10.560547 L 8.7949219 22.693359 C 3.6578346 27.832607 3.6599676 36.192087 8.796875 41.330078 A 1.0001 1.0001 0 0 0 8.7988281 41.330078 L 22.675781 55.207031 C 27.814899 60.346149 36.175335 60.346149 41.314453 55.207031 L 55.201172 41.320312 C 60.34029 36.181195 60.34029 27.820759 55.201172 22.681641 L 41.316406 8.7929688 C 39.02119 6.4977523 36.084214 5.2265552 33.078125 4.9804688 C 32.702364 4.9497079 32.326054 4.9342597 31.949219 4.9355469 z"/></svg>